<svg id="visual" viewBox="0 0 900 600" width="900" height="600" xmlns="http://www.w3.org/2000/svg" xmlns:xlink="http://www.w3.org/1999/xlink" version="1.1"><rect x="0" y="0" width="900" height="600" fill="#ffffff"></rect><path d="M0 126L129 118L257 125L386 110L514 129L643 124L771 118L900 117L900 0L771 0L643 0L514 0L386 0L257 0L129 0L0 0Z" fill="#c2c2c2"></path><path d="M0 94L129 95L257 93L386 90L514 88L643 88L771 106L900 105L900 0L771 0L643 0L514 0L386 0L257 0L129 0L0 0Z" fill="#8d8d8d"></path><path d="M0 69L129 73L257 81L386 67L514 70L643 83L771 73L900 65L900 0L771 0L643 0L514 0L386 0L257 0L129 0L0 0Z" fill="#5c5c5c"></path><path d="M0 54L129 56L257 47L386 46L514 47L643 44L771 49L900 49L900 0L771 0L643 0L514 0L386 0L257 0L129 0L0 0Z" fill="#2f2f2f"></path><path d="M0 28L129 33L257 23L386 32L514 26L643 32L771 34L900 25L900 0L771 0L643 0L514 0L386 0L257 0L129 0L0 0Z" fill="#000000"></path></svg>